<?xml version="1.0" encoding="utf-8"?>
<!-- Generator: Adobe Illustrator 23.0.0, SVG Export Plug-In . SVG Version: 6.00 Build 0)  -->
<svg version="1.1" id="Capa_1" xmlns="http://www.w3.org/2000/svg" xmlns:xlink="http://www.w3.org/1999/xlink" x="0px" y="0px"
	 viewBox="0 0 211.3 83.9" style="enable-background:new 0 0 211.3 83.9;" xml:space="preserve">
<style type="text/css">
	.st0{fill:#FFFFFF;}
	.st1{font-family:'FuturaStd-Heavy';}
	.st2{font-size:5.1243px;}
	.st3{fill:#D97C34;}
</style>
<g>
	<text transform="matrix(1 0 0 1 5.996 80.8383)" class="st0 st1 st2">FEDERACIÓN DE CENTROS DE ESTUDIANTES UNIVERSIDAD METROPOLITANA</text>
	<g>
		<g>
			<path class="st0" d="M18.1,49.1H9.6v4.5h7.7v6H9.6v10.6H2.6V43.1h15.6C18.1,43.1,18.1,49.1,18.1,49.1z"/>
			<path class="st0" d="M41.5,43.7v8.5c-0.7-1-1.6-1.7-2.7-2.2c-1.1-0.5-2.2-0.8-3.5-0.8c-2.1,0-3.9,0.7-5.2,2.2
				c-1.4,1.4-2,3.2-2,5.4c0,2.2,0.7,3.9,2,5.3c1.4,1.4,3.1,2.1,5.3,2.1c1.2,0,2.3-0.3,3.3-0.8c1.1-0.5,2-1.2,2.7-2.1v8.5
				c-2.7,0.8-4.8,1.3-6.2,1.3c-3.9,0-7.3-1.3-10.2-4c-2.9-2.6-4.3-6-4.3-10.3c0-3.9,1.3-7.2,4-9.9c1.4-1.4,2.9-2.4,4.8-3.2
				c1.8-0.8,3.7-1.2,5.6-1.2C37.1,42.4,39.2,42.8,41.5,43.7z"/>
			<path class="st0" d="M61.2,49.1h-8.4v4.5h8v6h-8v4.7h8.4v6H45.8V43.1h15.4V49.1z"/>
		</g>
		<g>
			<g>
				<path class="st3" d="M82.1,43.1h7.1v15.3c0,2.2-0.2,4.1-0.5,5.6c-0.3,1.5-1.1,2.8-2.3,4c-2,2-5,3-9,3c-4,0-7-1-9-3
					c-1.2-1.2-2-2.5-2.3-4c-0.3-1.5-0.5-3.4-0.5-5.6V43.1h7.1v14.3c0,0.9,0,1.6,0.1,2.2c0,0.6,0.1,1.2,0.3,2
					c0.2,0.7,0.4,1.3,0.8,1.7c0.3,0.4,0.8,0.8,1.4,1.1c0.6,0.3,1.4,0.4,2.2,0.4c0.9,0,1.6-0.2,2.2-0.4c0.6-0.3,1.1-0.7,1.4-1.1
					c0.3-0.4,0.6-1,0.8-1.7c0.2-0.7,0.3-1.4,0.3-2c0-0.6,0.1-1.3,0.1-2.2L82.1,43.1L82.1,43.1z"/>
				<path class="st3" d="M93.6,70.2V43.1h7.1l12.9,16.6h0.1V43.1h7.1v27.1h-7.1l-12.9-16.6h-0.1v16.6H93.6z"/>
				<path class="st3" d="M132.4,43.1v27.1h-7.1V43.1H132.4z"/>
				<path class="st3" d="M135.3,70.2l4.6-27.1h6.9l5.5,14.5l5.8-14.5h7l4.1,27.1h-7.1l-2-15.6h-0.1l-6.5,15.6h-2.8l-6.2-15.6h-0.1
					l-2.3,15.6L135.3,70.2L135.3,70.2z"/>
				<path class="st3" d="M187.8,49.1h-8.4v4.5h8v6h-8v4.7h8.4v6h-15.4V43.1h15.4V49.1z"/>
				<path class="st3" d="M202.9,49.1v21.2h-7.1V49.1H190v-6h18.7v6H202.9z"/>
				<path class="st3" d="M187.7,23.6c0.7-0.2,1.4-0.4,2.1-0.6c-0.1-0.3-0.2-0.7-0.4-1.2h-2.7c0.3-0.2,0.4-0.3,0.5-0.4
					c-0.1-0.1-0.2-0.2-0.3-0.3c-0.1-0.1-0.3-0.1-0.4-0.1c-0.2-0.3-0.4-0.7-0.6-1c0.2-0.1,0.3-0.1,0.7-0.2c-1.1-0.2-2.1-0.2-2.9-0.9
					c0.2,0,0.4,0,0.5-0.1c0-0.1,0-0.1,0-0.2c-0.7-0.1-1.4-0.1-2.3-0.2c0.3-0.4,0.5-0.6,0.7-0.8c-0.4-0.2-0.9-0.4-1.3-0.7
					c-0.6-0.4-1.2-0.4-1.8-0.2c-0.2,0.1-0.5,0.2-0.7,0.4c-0.2,0.3-0.2,0.7-0.4,0.9c-0.3,0.3-0.7,0.4-1.1,0.5c-0.1,0-0.3-0.2-0.3-0.3
					c0-0.4,0-0.8,0.1-1.2c0,0,0.1,0,0.1,0c-0.1-0.3-0.2-0.5-0.4-0.9l0.9,0.2c0,0.4-0.1,0.7-0.1,1.1c0.4-0.4,0.7-0.7,1-1
					c0.2-0.2,0.1-0.4-0.2-0.5c-0.2,0-0.4,0-0.7,0c-0.3,0-0.5,0-0.7-0.1c-0.3-0.1-0.5-0.2-0.8-0.4c-0.2-0.1-0.4-0.1-0.4-0.2
					c-0.3-0.6-0.8-0.5-1.3-0.3c-0.1-0.1-0.1-0.3-0.2-0.4c-0.3,0.1-0.6,0.3-0.9,0.4c0.2,0.2,0.4,0.3,0.7,0.5c-0.2,0-0.3,0-0.3,0
					c-0.5-0.3-0.8-0.2-1,0.4c-0.1,0.3-0.4,0.4-0.7,0.1c0-0.1-0.1-0.1-0.2-0.1c-0.5-0.1-1-0.6-1.6-0.3c-0.7,0.4-0.9-0.6-1.4-0.5
					c-0.1,0-0.3,0-0.4,0c-0.6-0.1-0.8-0.5-0.6-1.1c0.2,0.1,0.3,0.1,0.4,0.2c0.3-0.3,0.5-0.6,0.7-0.8c0,0,0,0.1,0,0.1
					c0.6-0.2,1.2-0.4,1.8-0.7c-0.5-0.5-0.5-0.5-1-0.4c-0.2,0-0.4,0.1-0.5,0c-0.7-0.1-1.3-0.2-2-0.4c-0.4-0.1-0.8-0.1-1.1-0.3
					c-0.4-0.2-0.7-0.4-1.1-0.1c-0.1,0.1-0.3,0-0.5,0c0-0.4,0.1-0.8,0.1-1.1c-0.6-0.6-1.1-1.2-2.1-1.3c0.4-0.2,0.7-0.3,1-0.5
					c-0.6-0.6-1.4-0.7-2-0.5c-0.7,0.2-0.8-0.2-1.1-0.6c-0.1-0.2-0.3-0.4-0.4-0.4c-0.5,0-1,0-1.4,0.1c-0.5,0.1-0.9,0.3-1.4,0.4
					c-0.8,0.1-1.6,0.1-2.4,0c-0.2,0-0.4-0.3-0.6-0.4c0-0.1,0.1-0.2,0.1-0.2c1,0.4,2.1-0.2,3.2,0c-0.1-0.2-0.2-0.3-0.3-0.4
					c-0.3-0.1-0.6-0.2-0.9-0.3c-0.1,0-0.2,0-0.3,0c-0.8,0-1.5,0-2.3,0c0-0.1,0-0.1,0-0.2c0.8-0.2,1.5-0.4,2.3-0.6c0-0.1,0-0.1,0-0.1
					c-0.2-0.1-0.5-0.1-0.7-0.2c-0.3,0-0.7,0.1-1,0.1c0.2-0.3,0.4-0.6,0.6-0.9c0.1,0,0.1,0,0.2,0c0.1,0.2,0.1,0.3,0.2,0.5
					c0.2,0,0.5,0,0.7,0c-0.3-0.9-0.9-1.3-1.7-1.2c-0.3,0-0.5,0-0.8,0c0-0.3,0.1-0.6,0.1-0.9c-0.5,0.1-0.9,0.2-1.3,0.3
					c-0.2,0.2-0.3,0.4-0.5,0.6c-0.3-0.3-0.6-0.6-0.9-0.9c-0.6,0-1.1,0-1.6,0.3c-0.1,0-0.2,0-0.3,0c-0.4-0.2-0.7,0-0.9,0.4
					c-0.1,0.2-0.2,0.6-0.6,0.3c-0.2-0.1-0.6,0.2-0.9-0.3c-0.1-0.2-0.8,0.1-1.2,0.1c-0.3,0-0.6,0-0.9,0.1c0-0.1,0-0.1,0-0.2l0.8-0.1
					c0-0.2,0-0.1,0-0.3L144,3.3c-0.1-0.1-0.2-0.3-0.2-0.4c-0.6,0.1-1.1,0.2-1.6,0.2c0-0.1,0-0.1-0.1-0.1c0.1-0.1,0.2-0.3,0.3-0.4
					l-0.1-0.1c-0.9,0.3-0.9,0.3-1.8,0.5c0,0.2-0.1,0.1-0.2,0c-0.4-0.3-0.8-0.2-0.9,0.3c0,0.1-0.2,0.2-0.3,0.2
					c-0.1,0-0.2-0.2-0.3-0.3c-0.2-0.2-0.3-0.5-0.4-0.6c-0.3-0.1-0.6-0.1-0.7-0.5c0,0-0.4-0.1-0.6,0c-0.2,0.1-0.2,0.3-0.4,0.5
					c0.3-0.1,0.4-0.1,0.6-0.1c-0.1,0.2-0.1,0.3-0.2,0.5c-0.4-0.1-0.7-0.2-1.1-0.3c-0.2,0.1-0.5,0.2-0.8,0.4c0.1-0.3,0.1-0.5,0.1-0.8
					c0.3,0,0.5,0.1,0.7,0.1c0-0.1,0-0.1,0-0.2c-0.3-0.1-0.5-0.6-1-0.3c-0.3,0.2-0.7,0.4-1.1,0.6c-0.1-0.8-0.4-0.9-1.1-0.4
					c-0.1,0.1,0,0.2,0.1,0.2c0.4-0.1,0.9-0.2,0.8,0.4c0,0.1,0.1,0.3,0.2,0.4c-0.1,0-0.3,0.1-0.4,0.1c-0.1,0.2-0.2,0.6-0.3,0.6
					c-0.5,0-1.2,0.3-1.6-0.2c0.2-0.2,0.3-0.4,0.4-0.6c0-0.1-0.2-0.2-0.3-0.3c-0.1,0-0.1,0-0.2,0c0.4,0.7-0.2,0.4-0.4,0.7
					c0.1,0.1,0.2,0.1,0.2,0.2c-0.2,0.4-0.3,0.8-0.4,1c-0.3-0.1-0.5-0.1-0.7-0.2c-0.2-0.1-0.5-0.1-0.6-0.2c-0.3-0.4-0.6-0.2-1-0.1
					c-0.1,0-0.3,0.1-0.4,0.1c-0.7,0.1-1.6-0.3-2.1,0.6c-0.1,0.1-0.2,0.1-0.3,0.1c-0.5,0-1-0.1-1.6-0.1c0,0,0.1-0.1,0.2-0.3
					c-0.1,0-0.2-0.1-0.3-0.1c-0.8,0.2-1.5,0.1-2.3-0.1c-0.2,0-0.4,0.1-0.8,0.2c-0.1-0.1-0.3-0.4-0.4-0.6c-0.1-0.1-0.3-0.3-0.3-0.3
					c-0.6,0.4-1-0.1-1.4-0.3c-0.2,0.2-0.4,0.4-0.5,0.6c-0.1-0.3-0.1-0.5-0.2-0.7c-0.7,0.2-1.2,0.5-1.8,0.6c-0.4,0-0.6,0.2-0.9,0.4
					c-0.2,0.2-0.5,0.5-0.8,0.5c-0.5,0-1.1-0.2-1.6-0.4c-0.3,0.3-0.6,0.6-0.9,0.8c-0.4,0.2-1,0.3-1.4,0.4c-0.1,0-0.3-0.3-0.5-0.3
					c-0.3,0-0.5,0.1-0.8,0.2c0.1,0.2,0.2,0.3,0.3,0.4c0.1,0.1,0.3,0.2,0.3,0.3c0,0.1-0.2,0.3-0.3,0.3c-0.6,0.1-1,0.4-1.1,0.9
					c-0.4,0-0.7,0.1-1,0.1c-0.6,0.1-1.2,0-1.6-0.5c-0.2-0.2-0.5-0.3-0.7-0.2c-0.1,0-0.2,0.4-0.3,0.7c-0.4,0-0.9,0-1.4,0
					c-0.7,0-1.4-0.4-2,0.2c-0.2,0.2-0.4,0.2-0.7,0.3c-0.5,0.1-0.9,0.2-1.4,0.3c0,0.1,0,0.1,0,0.2c0.1,0,0.1,0,0.2,0.1
					c0,0,0.1,0.1,0.1,0.1C98.9,9,99.1,8,98.7,8c-0.4,0-0.9-0.3-1.2-0.1c-0.8,0.4-1.1-0.2-1.5-0.6C95.9,7.1,95.5,7,95.4,7
					c-0.6,0.4-1.1,0.3-1.6-0.1c-0.9,0.6-1.8,0.2-2.7,0.2c0.1,0.2,0.2,0.4,0.3,0.6c0,0.1,0.2,0.2,0.2,0.3c-0.1,0.1-0.2,0.2-0.3,0.3
					c-0.6,0.1-1.3,0-1.8,0.2c-0.4,0.2-0.8,0.6-1.3,0.2c0,0-0.2,0.1-0.3,0.1c-0.3,0.1-0.7,0.3-1,0.4c-0.6,0.1-1.2,0.1-1.5,0.7
					c-0.3,0.5-0.7,0.7-1.2,0.6c-0.2,0-0.4,0.1-0.6,0.1l0.4,0.3c-0.5,0.3-0.9,0.5-1.3,0.7c-0.5,0.4-1,0.4-1.2-0.1
					c-0.3,0.3-0.9,0.3-0.7,1l0.5,0.3c0.2-0.2,0.4-0.3,0.4-0.3c0.3,0.2,0.6,0.3,0.9,0.5c-0.1,0.1-0.3,0.2-0.4,0.3
					c0.1,0,0.1,0,0.2,0.1c-0.1,0.3-0.1,0.7-0.3,1c0,0.1-0.4,0-0.7,0c-0.3,0-0.7-0.1-0.9-0.1c-0.2,0.2-0.3,0.4-0.4,0.4
					c-0.7,0.1-1.5,0.2-2.2,0.3c-0.4,0-0.8,0.1-1.2,0.1c0.9,0.4,1.1,0.7,0.9,1.1c0.2,0.1,0.3,0.3,0.4,0.4c-0.8,0.3-1-0.2-1.3-0.7
					c0-0.1-0.2-0.1-0.3-0.2c-0.8-0.1-1.6-0.3-2.5-0.4c-0.1,0-0.2,0.1-0.3,0.1c-0.1,0.1-0.2,0.2-0.4,0.3c-0.2,0.1-0.5,0.1-0.7,0.2
					c-0.3,0.2-0.4,0.5-0.7,0.6c-0.4,0.2-0.9,0.2-1.3,0.3c-0.5,0.2-1,0.5-1.5,0.8c-0.2,0.1-0.3,0.3-0.4,0.4c0,0.1,0.1,0.4,0.1,0.4
					c0.5,0.1,1,0.2,1.5,0.3l0,0c-0.1,0.1-0.2,0.1-0.3,0.2c0,0.1,0,0.2,0,0.2c-0.5,0.1-1,0.2-1.5,0.3c0.3,0.3,0.5,0.5,0.9,0.8
					c-0.1,0-0.1,0.1-0.2,0.1l0,0c-0.4,0.1-0.8,0.1-1.1,0.2c0.1,0,0.1,0.1,0.2,0.1c-0.3,0.3-0.7,0.6-0.9,0.8c0.1,0.3,0.1,0.5,0.1,0.8
					c0.1,0.1,0.3,0.4,0.3,0.3c0.3-0.1,0.7-0.3,1-0.5c0.1-0.1,0.3-0.2,0.5-0.2c0,0,0.1,0,0.1,0c0,0.2-0.1,0.4-0.1,0.7
					c0.4-0.2,0.6-0.3,0.9-0.5c0.1,0,0.2,0,0.3,0.1c0.1,0,0.3,0.2,0.3,0.2c-0.2,0.5,0.3,0.3,0.5,0.3c0.1,0,0.3,0,0.3,0
					c0.1,0,0.4,0-0.1,0.3c0.1,0,0.2,0,0.3,0c0.2-0.1,0.4-0.2,0.5-0.3c0.4,0.1,0.8,0.1,1.2,0.1c0.1,0,0.2,0,0.3-0.1
					c0.5-0.3,0.7-0.4,1,0c0.2,0.2,0.4,0.2,0.6,0.1c0-0.2,0-0.3,0-0.5c0.3,0.2,0.5,0.3,0.8,0.5c-0.1,0.1-0.1,0.3-0.1,0.5
					c0,0-0.1,0.1-0.1,0.1c-0.9,0.3-1.8,0.5-2.7,0.8l0.2,0.3c-0.7,1.2-2.1,1-3.1,1.8c0.5,0.3,1,0.5,1.4,0.7l-0.1,0.3
					c0.4,0.1,0.8,0.3,1.2,0.3c0.3,0,0.7-0.1,1-0.1c0.2,0,0.4,0,0.6,0c0.5,0,0.9,0,1.2,0.1c0.5-1,0-1.5-0.8-2
					c0.3-0.1,0.4-0.1,0.5-0.2c0.3,0,0.8,0.1,0.9-0.1c0.4-0.7,1.1-0.7,1.7-0.9c0.6-0.2,1.2-0.7,1.8,0.1l-0.5,0.3
					c0,0.3-0.1,0.6-0.1,0.9c0.3,0,0.6,0,0.9-0.1c0-0.1,0-0.2,0-0.3c0.1-0.2,0.1-0.4,0.2-0.7c0.2,0.1,0.4,0.2,0.6,0.2
					c0.2,0.1,0.4,0.2,0.7,0.3l-0.2-0.3c0.6-0.4,0.4-0.3,1-0.7l0.1,0.1l-0.2,0.3c0.3,0.2,0.6,0.4,0.9,0.6c-0.3,0.2-0.5,0.3-0.7,0.5
					c-0.2-0.1-0.4-0.2-0.6-0.3l0,0.4c-0.4,0-0.8-0.6-1,0.2c-0.6,0.1-1.1,0.7-1.7,0.1v0.6l0.2,0.2c0.3,0,0.5,0,0.8,0l0,0l-0.5-0.1
					c0-0.2,0-0.1,0-0.3c1-0.1,2.1-0.2,3.1-0.2c0.3,0,0.7,0.4,1-0.1c0,0,0.1,0.1,0.2,0.2c-0.1-0.3-0.1-0.5-0.1-0.7
					c0.5-0.2,0.9-0.4,1.4-0.5c0.5-0.1,0.8-0.8,1.4-0.2c0.5-0.9,1.9-0.9,2.8,0.1c-0.1,0.1-0.3,0.1-0.5,0.2c0.4,0.1,0.7,0.2,1,0.3
					c-0.7,0.3-1.5-0.6-2.1,0.3c0,0,0,0-0.1,0c-0.5-0.2-0.6,0.3-0.9,0.4c-0.1,0-0.2,0.1-0.3,0.1l-0.7-0.5c-0.7,0.3-1.4,0.5-2.1,0.7
					c0,0.1,0,0.2,0,0.3c0,0-0.1,0-0.1,0c-0.1,0-0.1,0.1-0.2,0.1c-0.2-0.2-0.3,0.3-0.5,0.3c-0.1-0.1-0.2-0.2-0.3-0.3
					c-0.1,0.1-0.1,0.2-0.2,0.3c-0.1-0.2-0.1-0.4-0.2-0.7c-0.4,0.4-0.7,0.7-1.2,1.2c0-0.3,0-0.5,0-0.9c-0.2-0.2-0.5-0.1-0.7,0.3
					c-0.5,0.7-0.6,0.7-1.4,0.3c-0.1-0.1-0.3-0.1-0.4-0.1c-0.5,0.2-1,0.3-1.5,0.5c-0.2-0.1-0.4-0.2-0.6-0.3c-0.1,0-0.3,0-0.4,0
					c0.8,0.4,0.4,0.5,0.2,0.5c-0.1,0.1-0.3,0-0.5,0.1c-0.3,0.1-1-0.1-0.7,0.7c0,0.1-0.2,0.4-0.3,0.4c-0.9,0.4-1.8,0.8-2.7,1.3
					c-0.1,0.1-0.2,0.2-0.3,0.3c0,0,0.1,0.1,0.1,0.1c0.3-0.1,0.5-0.2,0.7-0.3c0.1,0.1,0.1,0.1,0.1,0.2c-0.3,0.3-0.5,0.5-0.8,0.8
					l0.1,0.4c0.4,0.2,0.9,0.3,1.1,0.5c0.3,0.3,1.1,0.4,1.4,0c0-0.2,0-0.4,0-0.6c0.5,0.2,0.9,0.3,1.3,0.4c-0.5,0.3-1.2,0.5-1.5,0.9
					c-0.2,0.4,0,1.1,0.1,1.6c0.4,0.2,0.7,0.3,1.1,0.5l0.2-0.8c0.3-0.1,0.5-0.1,0.8-0.2c0.2,0.2,0.3,0.5,0.4,0.7
					c0.2-0.1,0.4-0.3,0.6-0.3c0.9,0.1,1.1-0.7,1.5-1.2c0.1-0.2,0.3-0.3,0.4-0.4c0.2,0.2,0.4,0.3,0.4,0.5c0.1,0.5,0.4,0.7,0.9,0.6
					c0.3-0.1,0.8-0.1,0.9,0.1c0.3,0.5,0.7,0.4,1,0.5c0.2,0.1,0.4,0,0.6,0c0,0.1,0,0.1,0,0.2l0.4-0.5c0.1,0,0.1,0,0.2,0.1
					c0,0.3-0.1,0.5-0.2,0.9c0.3,0.1,0.6,0.3,0.8,0.4c0.3-0.3,0.4-0.5,0.7-0.7L85,35.7c-0.3-0.1-0.7-0.1-0.8-0.2
					C84,35,83.8,34.9,83.4,35c-0.1,0-0.4-0.2-0.4-0.3c0-0.1,0.1-0.4,0.2-0.5c0.6-0.2,1.2-0.3,1.7-0.4c0.3,0.2,0.2,0.8,0.8,0.8
					c-0.1-0.3-0.1-0.6-0.2-1c0.8,0,0.4-0.9,0.8-1.3c0.4,0.6,0.4,0.5,1.4,0.3c0.1-0.1,0.2-0.1,0.3-0.2c0.1-0.1,0.1-0.2,0.2-0.4
					c-0.3,0-0.5,0-0.8,0.1c0.3-0.3,0.5-0.5,0.7-0.8c-0.4-0.1-0.1-0.6,0.2-0.9c0.2-0.2,0.6-0.3,0.9-0.4c0.2,0.1,0.4,0.2,0.5,0.3
					c0.2,0.1,0.3,0,0.5,0.1l0,0l0.3,0.2c0,0.1,0,0.2,0.1,0.2c0.1,0,0.2-0.1,0.3-0.1l0.6,0.3c0.1,0.1,0.2,0.2,0.3,0.3
					c-0.1-0.5-0.3-0.9,0.2-1c0.3,0.2,0.5,0.4,0.7,0.6c0.1-0.5,0.2-0.8,0.3-1.1c0.1,0,0.1,0,0.2,0c0,0.2,0,0.3,0,0.5
					c0.2,0,0.3-0.1,0.4-0.1c-0.1,0.2-0.3,0.4-0.3,0.6c0.2,0.8-0.3,0.8-0.8,0.9c-0.3,0.1-0.5,0.2-0.7,0.3c0,0.1,0.1,0.1,0.1,0.2
					c0.3-0.1,0.6-0.2,0.9-0.3l0.3,0.8c0.1-0.6,0.3-0.7,0.9-0.5c0.8,0.3,1.2,0,1.2-0.8l0.4,0.4l0,0c-0.1,0.2-0.2,0.4-0.2,0.5
					c-0.3,0.2-0.6,0.3-0.7,0.5c-0.2,0.4-0.7,0.8-1.1,0.6c-0.6-0.3-0.9,0.2-1.5,0.5c0.4,0.1,0.6,0.2,0.8,0.2
					c-0.2,0.2-0.3,0.3-0.5,0.4c0.9-0.1,2,0.2,2.7-0.7c0-0.1,0.1-0.1,0.2-0.1c0.5,0.2,0.8-0.2,1.2-0.6c0.1,0.4-0.4,0.9,0.2,1
					c0.3,0.1,0.6,0,0.9-0.1c0.2,0.3,0.4,0.7,0.6,1.1c0.1-0.3,0.2-0.4,0.3-0.5c1.1,0.7,1.1,0.7,1.4,0.5c0.2-1-0.6-1-1.3-1.3
					c0.4-0.1,0.7-0.1,1-0.1c0.1,0,0.2-0.2,0.2-0.3c0-0.2-0.1-0.3-0.2-0.4c0,0-0.2,0.1-0.3,0.1c-0.3,0.1-0.5,0.1-0.8,0.2
					c0.1-0.3,0.2-0.5,0.2-0.7c0-0.5,0.5-0.9,1-0.8c0.9,0.2,1.9,0.3,2.9,0.5c0.8,0.1,1.5,0.1,2.3,0.2c1.7,0.2,3.3,0.5,5,0.7
					c1.8,0.2,3.6,0.2,5.4,1c-0.3,0.1-0.5,0.2-0.7,0.2c-0.2,0.1-0.4,0.1-0.6,0.2c0.2,0.4,0.4,0.7-0.1,0.9c-0.1,0-0.1,0.3,0,0.4
					c0,0.1,0.2,0.2,0.3,0.2c0.2-0.1,0.5-0.3,0.6-0.5c0.1,0.1,0.2,0.3,0.3,0.3c0.2,0,0.5,0,0.6-0.2c0.3-0.7,0.8-0.6,1.4-0.4
					c0.1,0,0.2-0.1,0.4-0.1c-0.1-0.2-0.2-0.3-0.4-0.5c0.7,0.1,1.1,0.6,1.1,1c-0.5,0.1-1,0.1-1.7,0.2c0.3,0.2,0.4,0.4,0.6,0.4
					c0.4,0,0.8,0,1.2-0.1c0.5-0.1,0.9,0,1.2,0.3c0.5,0.5,1,0.9,1.5,1.4c0.7,0.7,1.3,1.4,1.9,2.1c0.2,0.2,0.1,0.5,0.2,0.8
					c-0.1,0-0.1,0-0.2,0.1c-0.2-0.2-0.4-0.5-0.7-0.7c0,0.1,0,0.1-0.1,0.2c-0.3-0.1-0.7-0.2-1-0.3c0.2,0.3,0.6,0.4,0.8,0.7
					c0.3,0.3,0.5,0.6,0.7,0.9c0.1,0.2,0.3,0.4,0.4,0.6c0.3,0.3,0.8,0.1,1,0.4c0.4,0.5,1.3,0.4,1.5,0.9c0.2,0.7,0.4,1.7,0.6,2.5
					c0.3,1.4-0.5,3.5-0.3,5h6.7c0.2-1.9,0-4.9,0.4-7.2c0.2-1,0.9-1.9,1.6-2.6c1.6-1.7,2.6-2.2,4.4-3.3c0.8-0.5,1.7-1,2.5-1.5
					c1.2-0.7,2.3-1.4,3.5-2.1c0.1-0.1,0.3,0,0.3,0.1l0.1,0.3c0.1,0.2,0,0.4-0.1,0.5c-0.1,0.1,0,0.3,0.1,0.4l0.8,0.1
					c0.1,0,0.3-0.1,0.3-0.2c0-0.1,0-0.2,0.1-0.3c-0.3,0-0.3-0.1-0.3-0.4c0.1-0.1,0.1-0.3,0.1-0.4c0-0.2,0.2-0.3,0.4-0.3
					c0.2,0,0.4,0.2,0.4,0.5c0.2-0.1,0.4-0.2,0.6-0.3c0.1-0.1,0.2-0.3,0-0.3c-0.3-0.2-0.6-0.3-0.9-0.5c-0.1,0-0.1-0.1,0-0.2
					c0.5-0.3,0.9-0.6,1.3-0.9c0.5-0.5,1.1-0.2,1.6-0.1c0.1-0.2,0.1-0.3,0.1-0.4c0.6-0.1,1.1-0.2,1.5-0.3v-0.8
					c0.2,0.2,0.3,0.4,0.4,0.5c0.1,0.1,0.3-0.1,0.5-0.1c0.2,0.3-0.5,0.8,0.2,1c0.2-0.2,0.4-0.3,0.7-0.6c-0.3-0.2-0.5-0.3-0.8-0.4
					c0.5-0.1,0.9-0.2,1.3-0.2c0.2,0,0.5-0.1,0.6,0c0.5,0.7,0.7-0.1,0.9-0.2c0.3,0.1,0.5,0.2,0.7,0.3l0.3-0.4c0-0.1-0.1-0.3-0.1-0.4
					c0.4,0.3,0.9,0.6,1.3,0.9c-0.3,0.5-1,0.4-0.9,1.2c0.3-0.2,0.4-0.4,0.6-0.5c0.1,0.2,0.2,0.4,0.3,0.7c-0.4,0.1-0.8,0.2-1.4,0.4
					c0.2,0.5,0.4,1,0.6,1.5c0,0.1,0.2,0.1,0.3,0.1c0.1-0.2,0.1-0.3,0.2-0.6c0.2,0.1,0.4,0.3,0.5,0.4c0.2,0.1,0.5,0.2,0.8,0.2
					c0,0,0.1-0.3,0.1-0.4c-0.3-0.1-0.4-0.2-0.6-0.3c0.3-0.1,0.7-0.1,1.1-0.2c-0.1,0.6,0.1,0.9,0.8,0.8c-0.5,0.4-0.4,1.1-1.1,1
					c-0.1,0-0.2,0.2-0.2,0.2c0.1,0.3,0.3,0.6,0.4,0.9c0.2-0.2,0.3-0.4,0.5-0.5c0,0,0.1,0,0.1,0c0.2,0.1,0.3,0.2,0.6,0.3
					c0-0.9,0.8-0.7,1.2-1.1c-0.2-0.2-0.4-0.3-0.6-0.5c0.5-0.4,0.9-0.7,1.3-1c0.2-0.1,0.4-0.3,0.6-0.4l0,0c0.2,0.2,0.4,0.4,0.8,0.7
					c-0.8-0.2-1.2,0-1.2,0.7c0-0.1-0.1-0.2-0.1-0.2c-0.1,0.2-0.3,0.4-0.4,0.7c0.3,0.5,1.4-0.1,1.2,0.9c0.3,0.1,0.5,0.2,0.8,0.3
					c0,0.2-0.1,0.4-0.1,0.5c0.2,0,0.4,0.1,0.5,0.1c0.4,0.2,0.8,0.4,1.2,0.5c0.4,0.1,0.6-0.2,0.5-0.7c0-0.1,0.1-0.2,0.1-0.3
					c-0.2-0.2-0.9,0.2-0.7-0.6l0,0c0.1-0.2,0.1-0.3,0.2-0.4c0.4,0.3,0.9,0.6,0.9,1.2c0,0.7,0.1,0.7,0.7,0.5c0.1-0.1,0.3-0.3,0.4-0.4
					c0.1,0.6,0.4,0.1,0.5,0.1c0.2-0.5,0.3-1,0.5-1.5c0.2,0,0.5,0,0.9,0.1c-0.1-0.2-0.3-0.3-0.4-0.5c0.3-0.4,0.1-0.7-0.4-0.9
					c-0.4-0.1-1-0.3-1-0.5c0.1-0.7-0.1-1.1-0.9-1.1c0,0,0,0-0.1-0.1c0-0.1,0.1-0.3,0.1-0.4c0.1,0,0.2,0,0.3,0c0.1,0,0.2,0,0.3-0.1
					c-0.2-0.3-0.4-0.6-0.6-0.8c0.5,0,0.8,0.1,1.1,0.2c0.4,0.2,0.8,0.5,1.1,0.4c0.8-0.3,0.7,0.1,0.5,0.8c0.6-0.7,1.3,0.4,1.8-0.5
					c0.3,0.4,0.6,0.7,0.9,1.1c-0.6,0.3-0.6,0.7-0.4,1.1c0.2-0.1,0.3-0.2,0.5-0.3c-0.3,0.5-0.6,0.9-0.9,1.3c1,0.1,1.9,0.3,2.7,0.3
					c0.4,0,1,0.2,1.4-0.2c0.4-0.4,0.8-0.4,1.3-0.3c0.5,0.1,0.5-0.3,0.5-0.7c0-0.3,0.1-0.6,0.4-0.6c0.1,0.2,0.3,0.4,0.3,0.5
					c0-0.1,0-0.3,0.1-0.3c0.1-0.1,0.3-0.2,0.4-0.1c0.1,0,0.3,0.2,0.3,0.2c0.1-0.3,0.2-0.6,0.3-1.1c-0.3-0.1-0.7-0.3-1.1-0.4
					c0.5-0.1,0.9,0,1.4,0c0.2,0,0.3,0.1,0.5,0.2c0.1,0.1,0.2,0.3,0.3,0.4c0.5-0.1,0.9-0.1,1.4-0.2c0.4,0.1,0.9,0.2,1.4,0.3
					c-0.5-0.4-0.8-0.7-1.2-1c0.2-0.1,0.3-0.1,0.4-0.1c-0.5-0.5-0.9-0.4-1.1,0.2l-0.6-0.5c0.2-0.1,0.5-0.2,0.7-0.2
					c-0.9-0.2-1.9,0.2-2.6-0.7c0.6,0.1,1.3,0.2,1.9,0.3c0.6,0.1,1.3,0,1.8,0.1c0.5,0.1,0.9,0.6,1.3-0.1c0,0,0.2,0,0.3,0.1
					c-0.6-1.1-1.1-1.3-2-0.7c-0.1,0.1-0.5,0.1-0.6,0c-0.6-0.7-1.5-0.7-2.2-0.8c-0.9-0.1-1.3-0.6-1.8-1.1c0.6,0,1.3,0.1,2.1,0.1
					c-0.1-0.3-0.2-0.4-0.2-0.4c0.3-0.2,0.5-0.4,0.7-0.6c0.5-0.3,1-0.6,1.5-0.8c0.2-0.1,0.4,0,0.6,0.1c0.2,0.1,0.4,0.3,0.6,0.4
					c0.1,0,0.2-0.1,0.4-0.4c0.1-0.1,0.2-0.1,0.3-0.1c0.7,0.8,1.3-0.1,1.7-0.1c0.4,0.3,0.7,0.5,1,0.7c0.1,0,0.1,0,0.2,0
					c-0.4-0.5,0-0.5,0.2-0.6c-0.1-0.2-0.2-0.4-0.4-0.6c0.7,0.4,1.2,0.1,1.8-0.4c-0.3-0.2-0.5-0.4-0.7-0.6c0.3-0.2,0.5-0.4,0.8-0.6
					c-0.4-0.6-0.9-0.4-1.5-0.3c0.1-0.2,0.2-0.3,0.3-0.3c0.1-0.1,0.2-0.2,0.3-0.2c0.9,0.4,1,0.4,1.5-0.2l-0.9-0.4
					C187.6,23.7,187.6,23.7,187.7,23.6z M71,19.1L71,19.1C71,19.1,71.1,19.1,71,19.1C71.1,19.1,71,19.1,71,19.1z M74.4,18.7
					c-0.1,0-0.2,0.1-0.3,0.2c-0.2,0-0.5-0.1-0.8,0c-0.1,0-0.2,0.1-0.2,0.1c-0.2-0.2-0.4-0.4-0.9-0.3c-0.1,0-0.3-0.1-0.4-0.1
					c-0.1,0.1-0.1,0.2-0.2,0.2c0-0.1,0-0.1,0-0.2c0.7-0.5,1.5-0.5,2.2-0.2c0.3-0.3,0.6-0.5,0.9-0.8C74.7,18.1,74.6,18.4,74.4,18.7z
					 M75.5,18.4c0-0.1-0.1-0.2-0.1-0.3c0.2,0,0.4,0,0.7,0C75.9,18.2,75.7,18.2,75.5,18.4z M75.8,17.9c-0.1,0.1-0.2,0.2-0.3,0.2
					c-0.2-0.4-0.4-0.8,0.4-0.9c-0.2-0.1-0.3-0.2-0.5-0.3c0.1,0,0.1-0.1,0.1-0.1c0.2,0.1,0.5,0.3,0.6,0.4
					C76.2,17.4,75.9,17.7,75.8,17.9z M76.2,22.7C76.2,22.7,76.2,22.7,76.2,22.7C76.2,22.7,76.2,22.7,76.2,22.7
					C76.2,22.7,76.2,22.7,76.2,22.7z M76.8,18.9c-0.1,0-0.1,0-0.2,0c-0.1,0-0.2-0.2-0.2-0.3s0.2-0.2,0.3-0.3
					c0.2,0.1,0.4,0.2,0.6,0.4C77.1,18.8,77,18.9,76.8,18.9z M77.8,17.2c0-0.1,0-0.1,0-0.2c0.8-0.4,1.2-0.3,1.5,0.2
					C78.8,17.2,78.3,17.2,77.8,17.2z M153.4,5.5c0.3,0,0.5,0.1,0.8,0.1c-0.4,0.2-0.8,0.4-1.3,0.6C152.6,5.6,153.6,5.8,153.4,5.5z
					 M148.9,4.1c0.1,0,0.2,0,0.5-0.1c0,0,0.1,0.1,0.2,0.2c0.1-0.1,0.2-0.2,0.3-0.3c0,0.1,0.1,0.2,0.1,0.2c-0.1,0.2-0.2,0.4-0.3,0.4
					c-0.3,0.1-0.6,0.2-1,0.3C148.8,4.6,148.9,4.3,148.9,4.1z M149.1,26.7c-0.4,0.5-0.4,0.5-1.2,0.2
					C148.3,26.8,148.7,26.7,149.1,26.7z M147.3,23.3c-0.3,0.5-0.6,1.1-1.3,1.1c0-0.1-0.1-0.1-0.1-0.2
					C146.3,23.9,146.8,23.6,147.3,23.3z M147.1,18.7c0,0.1,0,0.2,0,0.3c-0.4,0-0.8,0.1-1.2,0.1c0-0.1,0-0.1,0-0.2c0.2,0,0.5,0,0.9,0
					c-0.3-0.3-0.4-0.5-0.6-0.7c0,0,0-0.1,0-0.1C146.4,18.3,146.7,18.5,147.1,18.7z M146.7,17.4c0,0.1,0,0.1,0.1,0.2
					c-0.3,0.1-0.7,0.3-1,0.3c-0.3-0.1-0.5-0.4-0.7-0.7C145.6,17.2,146.2,17.3,146.7,17.4z M144.4,28.2c0.4-0.1,0.7-0.4,1.1-0.6
					c-0.2,0.7-0.9,1-2.2,1c0-0.1,0-0.1-0.1-0.2C143.6,28.4,144,28.4,144.4,28.2z M139.4,30.9c-0.1,0.4-0.2,0.7-0.3,1
					c-0.1,0-0.4,0-0.7,0C138.7,31.1,139.1,30.7,139.4,30.9z M136.6,33c-0.4,0.2-0.8,0.4-1.3,0.5c-0.2,0.1-0.5,0-0.7-0.1
					c-0.1-0.1-0.2-0.3-0.3-0.4c0.2-0.1,0.3-0.2,0.5-0.2c0.2-0.1,0.4-0.1,0.7-0.2c0-0.7,0.5-1.2,1.1-1.2c0.5,0,0.7,0.3,0.5,0.8
					c-0.1,0.3-0.2,0.7-0.3,0.9c-0.2,0.3-0.5,0.5-0.7,0.8c-0.1-0.1-0.1-0.1-0.2-0.2C136.2,33.6,136.5,33.4,136.6,33
					C136.7,33.1,136.7,33.1,136.6,33z M133.7,27.8c0-0.1-0.1-0.3-0.2-0.5c0.5,0,1,0,1.5,0c0,0.1,0,0.2,0,0.2
					C134.7,27.6,134.2,27.7,133.7,27.8z M138,34.6c0.1-0.1,0.3-0.2,0.4-0.3c0.1-0.1,0.2-0.1,0.2-0.1c0.1,0,0.2,0.1,0.2,0.2
					c0,0.2,0,0.3-0.1,0.4c-0.4,0.5-1,0.4-1.5,0.2C137.5,34.9,137.7,34.7,138,34.6z M138.2,16c0.3,0,0.6,0,1,0
					c-0.1,0.2-0.1,0.3-0.2,0.6c-0.3-0.2-0.5-0.3-0.8-0.4C138.2,16.2,138.2,16.1,138.2,16z M136.7,26.7c0.3-0.2,0.5-0.5,0.8-0.6
					c0.3-0.1,0.6,0.1,0.9,0.3c0,0,0,0.3-0.1,0.4c0,0.1-0.2,0.1-0.3,0.1c0-0.1-0.1-0.3-0.1-0.4c-0.2,0.1-0.4,0.3-0.5,0.4
					c-0.3,0.3-0.5,0.3-0.9,0.1c-0.2-0.2-0.7,0-1-0.1c-0.3,0-0.7-0.1-1-0.1C134.6,26.1,135.2,26.1,136.7,26.7z M134.1,19.5
					c0-0.4-0.1-0.7-0.1-1.1c0-0.1,0.2-0.3,0.2-0.3c0.2,0,0.4,0.1,0.4,0.2c0.1,0.3,0.1,0.7,0.2,1.1C134.6,19.5,134.4,19.5,134.1,19.5
					z M134.2,17c0.5,0.5,1,0.8,1.4,1.2c-0.2,0.1-0.3,0.2-0.4,0.4c-0.1-0.1-0.1-0.1-0.1-0.2c-0.2-0.3-0.1-0.8-0.7-0.6
					C133.9,17.8,134.1,17.4,134.2,17z M134.5,24.1c0,0.4-0.4,0.7-0.9,0.6c0-0.1-0.1-0.1-0.1-0.2c0.2-0.1,0.3-0.2,0.5-0.3
					c-0.2-0.2-0.4-0.3-0.6-0.5C133.9,23.9,134.5,23.4,134.5,24.1z M133.5,29.4c-0.7,0.8-1.4,1.6-2.1,2.4c-0.1-0.1-0.2-0.1-0.2-0.2
					c0.1-0.2,0.3-0.3,0.4-0.5c-0.4-0.2-0.3-0.6-0.1-0.9c0.2-0.3,0.6-0.4,0.9-0.6c-0.1,0-0.3-0.1-0.4-0.1c0-0.1,0-0.1,0-0.2
					c0.5,0,1-0.1,1.5-0.1C133.5,29.3,133.5,29.4,133.5,29.4z M132.6,26.8c-0.4,0-0.7,0.1-1,0.1c0-0.3,0-0.6,0.1-0.9
					c0.4-0.1,0.9-0.3,1.4-0.4c0,0.2,0.1,0.4,0.1,0.8c-0.4-0.1-0.6-0.2-0.9-0.3C132.4,26.3,132.5,26.5,132.6,26.8z M132.4,24.6
					c0.3,0.2,0.4,0.3,0.6,0.4c-0.9,0.3-1.7,0.7-2.5,1c0,0-0.1,0-0.1-0.1c0.4-0.6,0.8-1.2,1.4-1.6c0.3-0.2,0.9,0,1.3,0
					c0,0,0,0.1,0,0.1C132.9,24.4,132.7,24.5,132.4,24.6z M133.2,16.6c0,0.1,0.1,0.1,0.1,0.2c-0.1,0.1-0.3,0.2-0.4,0.3
					c0,0,0,0,0.1,0.1c0,0,0,0-0.1,0c-0.3-0.1-0.5-0.2-1-0.3C132.4,16.7,132.8,16.6,133.2,16.6z M132.1,18.7c0.2,0,0.4-0.1,0.6-0.2
					c0.2,0,0.4-0.1,0.5-0.1c0.1,0.1,0.3,0.3,0.2,0.5c0,0.1-0.3,0.2-0.4,0.2c-0.1,0-0.3-0.1-0.4,0c-0.1,0-0.1,0.2-0.3,0.4
					c-0.9,0.1-0.9,0.1-1.3-0.6C131.4,18.9,131.7,18.8,132.1,18.7z M131.1,24c-0.4,0.5-0.8,1.1-1.1,1.7c-0.2-0.1-0.3-0.3-0.5-0.4
					C130.6,24,130.8,23.9,131.1,24z M129.7,30.2c-0.1,0.2-0.1,0.3-0.2,0.6c-0.2-0.2-0.3-0.4-0.4-0.6c-0.1-0.2-0.3-0.3-0.3-0.5
					C129.1,29.9,129.4,30.1,129.7,30.2z M128.7,28.5c0.2-0.2,0.3-0.3,0.6-0.6c0.2,0.5,0.3,0.8,0.3,1.1c0,0-0.1,0.1-0.1,0.1
					C129.3,28.9,129,28.7,128.7,28.5z M129.3,23.8c0.3,0.1,0.5,0.1,0.9,0.2c-0.2-0.3-0.3-0.4-0.4-0.6c0.3,0,0.5,0,0.9,0.1
					c-0.2,0.7-0.8,1-1.3,1.4c-0.1,0-0.1,0-0.2,0C129.2,24.5,129.3,24.2,129.3,23.8z M127.9,10.6c0.2,0.3,0.3,0.5,0.5,0.9
					c-0.4-0.1-0.7-0.2-1-0.3C127.6,11,127.7,10.8,127.9,10.6z M127.6,23.4c0.1,0,0.3,0,0.4,0c0-0.1-0.1-0.3-0.2-0.5
					c0.3,0.1,0.6,0.2,1,0.3c-0.2,0.3-0.4,0.5-0.6,0.8c-0.5-0.2-0.8-0.4-1.2-0.6c0,0,0-0.1,0-0.1C127.2,23.3,127.4,23.4,127.6,23.4z
					 M128,24.3c-0.2,0.3-0.4,0.5-0.7,0.9c-0.2-0.5-0.3-0.9-0.5-1.4C127.3,23.9,127.7,24.1,128,24.3z M127.1,13.6c0,0.1,0,0.1,0,0.2
					c-0.4,0-0.9,0.4-1.2-0.3C126.3,13.5,126.7,13.6,127.1,13.6z M126,25.1c0-0.6,0.1-1.1,0.1-1.6C126.9,24.1,126.9,24.4,126,25.1z
					 M125,30.6c0.1-0.4,0.1-0.8,0.3-1.2c0.1-0.3,0.4-0.5,0.6-0.6c0.6-0.1,0.6-0.4,0.4-0.9c0.9,0.7,0.9,0.9,0.4,2
					c-0.1,0.3-0.2,0.7-0.3,1.1c-0.1,0.5-0.5,0.6-0.9,0.5C125.2,31.3,124.8,31.1,125,30.6z M124.6,16.9c0,0.4,0,0.9,0,1.4
					c0,0.1,0,0.3,0,0.4c-0.1,0.2-0.3,0.3-0.4,0.3c0,0-0.3-0.1-0.3-0.1c0-0.2,0-0.3,0.1-0.5c0-0.1,0.1-0.2,0-0.2
					c-0.1-0.4-0.2-0.8-0.3-1.2c0-0.1-0.2-0.3-0.4-0.3c-0.3,0-0.5,0-0.9,0.1C123.2,15.9,123.8,16.2,124.6,16.9z M122.7,25.5
					c0.1,0.3,0.2,0.5,0.2,0.5c-0.4,0.5-0.7,0.9-1,1.3c0.4-0.3,0.8-0.5,1.1-0.8c0.3,0.4,0.4,0.8,0,1.3c-0.3,0.3-0.4,0.7-0.6,1
					c-0.3,0.5-0.6,0.5-0.9,0c-0.2-0.3-0.2-0.7-0.3-1c-0.2-0.2-0.5-0.4-0.6-0.6c-0.2-0.3-0.3-0.7-0.4-1.1c0-0.3,0.1-0.6,0.1-1
					c0.1,0.1,0.2,0.2,0.3,0.3c0.3,0.2,0.5,0.1,0.7-0.1c0.1-0.2,0.3-0.3,0.5-0.4c0,0,0.2,0.1,0.2,0.1c-0.1,0.2-0.2,0.3-0.3,0.5
					C122.1,26.1,122.4,25.9,122.7,25.5z M123.1,28.2c0.1-0.1,0.2-0.3,0.3-0.4c0.4,1.3,0.4,3.2-0.1,3.9c-0.1-0.4-0.2-0.7-0.3-1
					c0-0.1,0-0.2-0.1-0.3C122.3,29.6,122.8,28.9,123.1,28.2z M122.2,14.6c0,0,0.1,0.2,0.1,0.4c-0.2,0.1-0.3,0.2-0.5,0.3
					c-0.4-0.2-0.9-0.5-1.4-0.7c0,0,0-0.1,0-0.1C121.1,14.5,121.6,14.6,122.2,14.6z M119.5,16.1c0.3,0,0.7,0,1.1,0.1
					c0.6,0.3,1.2,0.5,1.8,0.9c0.2,0.1,0.3,0.4,0.3,0.7c0,0.1-0.3,0.3-0.5,0.4c-0.2-0.6-1.3-1.1-2.2-1c0.1-0.1,0.2-0.2,0.2-0.3
					c-0.2-0.2-0.5-0.4-0.7-0.6C119.4,16.2,119.5,16.1,119.5,16.1z M120.1,22.9c-0.4,0-0.6,0.1-1.1,0.1
					C119.4,22.5,119.7,22.3,120.1,22.9z M118.2,16.2c0.2,0.1,0.4,0.2,0.7,0.3c-0.1,0.3-0.3,0.5,0.4,0.5c-0.1,0.1-0.1,0.1-0.2,0.2
					c-0.3,0.3-0.6,0.5-1,0.8C117.8,17.4,118,16.8,118.2,16.2z M118,18.7c0-0.1,0.1-0.4,0.2-0.7c0.2,0.2,0.4,0.3,0.6,0.5
					c0.1,0,0.1-0.1,0.2-0.1c0,0.3-0.1,0.6-0.2,0.9c0,0.1-0.2,0.1-0.3,0.1c0,0,0-0.1-0.1-0.2c0.1,0,0.2-0.1,0.4-0.2
					C118.5,19,118.3,18.8,118,18.7z M119.1,23.4c-0.5,0.1-0.9,0.2-1.4,0.2C118,23.1,118.5,23,119.1,23.4z M116.6,19.6
					c0.2,0.3,0.5,0.5,0.8,0.9c-0.2,0.2-0.3,0.3-0.4,0.3c-0.2-0.3-0.3-0.7-0.5-1C116.5,19.7,116.5,19.7,116.6,19.6z M111.4,17.6
					c0.3,0.1,0.7,0.1,1.1,0.2c-0.1,0.2-0.3,0.4-0.3,0.4c-0.3-0.1-0.6-0.3-0.9-0.5C111.4,17.6,111.4,17.6,111.4,17.6z M111.5,23.7
					c-0.1-0.1-0.2-0.2-0.3-0.3c0,0,0-0.1,0.1-0.1c0.3,0.1,0.7,0.2,1.1,0.3c-0.1,0.1-0.2,0.2-0.2,0.3c0.2,0,0.3-0.1,0.7-0.2
					c-0.1,0.3-0.2,0.5-0.3,0.7c0.2-0.1,0.4-0.3,0.6-0.2c0.2,0.1,0.3,0.3,0.5,0.5c0.1,0.1,0.1,0.2,0.2,0.2c0.3,0.3,0.7,0.5,1,0.7
					c0.3,0.3,0.7,0.6,1,0.9c0,0.1-0.1,0.1-0.1,0.2c-1.3-0.3-2.6-0.7-3.9-1c-0.9-0.3-1-0.6-0.5-1.4C110.9,24,111.2,23.8,111.5,23.7z
					 M101.3,27.2c1.2,0,2.5-0.1,3.7,0c0.4,0,0.7,0.4,1,0.8c-1.6,0.2-3.2-0.3-4.7-0.5C101.3,27.3,101.3,27.2,101.3,27.2z M100.4,26.6
					c0.7-0.5,1.1-0.5,2.1,0.1C101.7,26.8,101,27.2,100.4,26.6z M105.4,28.5C105.4,28.6,105.4,28.6,105.4,28.5
					c-0.2,0.2-0.5,0.3-0.8,0.5c0-0.2-0.1-0.4-0.1-0.6C104.7,28.4,105,28.5,105.4,28.5z M106,28.7c0-0.1,0-0.1-0.1-0.2
					c1.4,0,2.4,0.8,3.3,1.7c0,0.1,0,0.1-0.1,0.2c-0.4,0-0.8-0.1-1.2-0.1c-0.7-0.1-1.4-0.2-2.1-0.3c-0.3-0.1-0.5-0.3-0.8-0.4
					C105.4,29.2,105.7,28.9,106,28.7z M106.1,27.4c0.4-0.2,0.9-0.3,0.7,0.5C106.5,27.8,106.3,27.6,106.1,27.4z M108,28.6
					c-0.4-0.2-0.7-0.5-0.4-1.2c2.4,1.1,4.4,2.6,6.4,4.2c-0.3-0.1-0.7-0.1-1-0.2c-0.3-0.1-0.7-0.2-1-0.3c-1-0.4-2-0.8-2.8-1.6
					C109,29.1,108.5,28.8,108,28.6z M110.7,23.2c0,0.4,0,0.7,0,1.1c-0.8-0.1-2.3-1-2.6-1.6C109,22.8,109.9,23,110.7,23.2z
					 M110.3,25.2c-1.4-0.7-2.9-1.5-4.3-2.2C106.9,22.9,109,24,110.3,25.2z M107.5,22.6c-0.5-0.2-1-0.4-1.6-0.6
					C106.5,21.8,107.3,22.1,107.5,22.6z M106.4,23.9c1.3,0.6,2.5,1.3,3.8,1.8c0.6,0.3,0.3,0.7,0.4,1.1c0.1,0.3,0,0.7,0,1
					c-1.9-1-3.8-2.1-5.1-4.2C105.9,23.7,106.2,23.8,106.4,23.9z M104.5,23.7c0.4,0.3,0.7,0.6,1.1,1
					C104.7,24.7,104.3,24.4,104.5,23.7z M104.4,25.3c0.1,0,0.2,0.2,0.4,0.3c-0.5,0.4-0.9,0.5-1.4,0.3c-0.4-0.2-1-0.2-1.4-0.3
					c-0.2,0-0.3-0.3-0.4-0.4c0.2-0.1,0.3-0.2,0.6-0.3c0,0,0.1-0.2,0.2-0.3c0,0.2,0.1,0.4,0.1,0.5C103,25.1,103.7,25.2,104.4,25.3z
					 M103.2,21.5c0.2,0.3,0.3,0.5,0.4,0.8c0,0-0.3,0.2-0.3,0.2c-0.2-0.1-0.3-0.3-0.4-0.5C102.9,21.9,103.1,21.7,103.2,21.5z
					 M102,20.5c0.3,0.2,0.5,0.5,0.8,0.7c-0.7,0.4-1.2,0.3-1.7-0.2C101.5,20.8,101.7,20.7,102,20.5z M101.2,24.7
					C101,25,101,25,100,25C100.2,24.6,100.5,24.5,101.2,24.7z M93.4,16.5c0,0.1,0.1,0.1,0.1,0.2c-0.5,0.1-0.6,1-1.3,0.6
					C92.6,17.1,93,16.8,93.4,16.5z M92.2,17.6c-0.4-0.1-0.5-0.1-0.7-0.1c0-1.3,0.1-1.4,1-1.5C91.7,16.4,91.4,16.9,92.2,17.6z
					 M91.6,14.5c0.2,0,0.4,0.1,0.6,0.2c0,0.1,0,0.1-0.1,0.2c-0.2,0-0.4,0-0.8,0.1C91.4,14.8,91.5,14.5,91.6,14.5z M90,16.5
					c0,0.5,0.3,0.5-1.2,0.2C89.2,16.6,89.6,16.5,90,16.5z M87.4,17.7c0.3,0,0.6,0,0.9,0c0,0.2,0.1,0.5,0.2,0.9
					c-0.5-0.3-0.8-0.5-1.2-0.7C87.3,17.9,87.3,17.8,87.4,17.7z M85,12.8c0.4,0.1,0.8,0.1,1.2,0.2c0,0.1,0,0.1,0,0.2
					c-0.4,0-0.8,0-1.2-0.1C85,13,85,12.9,85,12.8z M82.2,16.2c0.1,0,0.2,0.1,0.2,0.2c-0.1,0.1-0.1,0.2-0.2,0.3
					c-0.3,0.1-0.7,0.1-1,0.2c0-0.1,0-0.2-0.1-0.3C81.5,16.5,81.9,16.3,82.2,16.2z M82,20.2c0,0.2-0.1,0.3-0.2,0.6
					c-0.1-0.2-0.1-0.3-0.2-0.3c-0.1,0-0.3,0-0.4,0.1c-0.1,0.1-0.3,0.1-0.4,0.2c-0.2,0-0.5,0-0.6-0.2c0,0,0,0-0.1-0.1
					c0.1-0.1,0.1-0.2,0.1-0.4c0-0.2,0.2-0.3,0.3-0.4c0.3-0.1,0.7-0.1,1-0.1c0,0-0.1-0.1-0.1-0.1c0.2-0.2,0.5-0.4,0.7-0.6
					c0.2,0.2,0.4,0.3,0.6,0.5c-0.3,0.2-0.7,0.3-1,0.5c0.2,0.1,0.3,0.2,0.4,0.2C82.3,20.2,82.2,20.2,82,20.2z M82.3,21.6
					c0-0.1-0.1-0.1-0.1-0.2c0.2-0.4,0.4-0.8,0.5-1c0,0,0.1,0.1,0.1,0.1C82.7,20.9,82.5,21.2,82.3,21.6z M84.4,25.6
					c-0.2,0.1-0.5,0.3-0.7,0.3c-0.3,0.1-0.7,0.3-0.5-0.4c0-0.1-0.2-0.3-0.3-0.5c0-0.1,0-0.2,0.1-0.2c0.5,0.2,1,0.3,1.5,0.4
					C84.5,25.3,84.5,25.6,84.4,25.6z M84.2,19.3c0.4-0.9,1.4-0.2,1.9-0.8c0,0.1,0.1,0.1,0.1,0.2c-0.1,0.1-0.2,0.1-0.5,0.2
					c0.3,0.1,0.5,0.2,0.6,0.2C86.3,19.5,85.3,19.6,84.2,19.3z M90.4,26.4c-0.3-0.4-0.5-0.8-0.8-1.2c0-0.1-0.1-0.1-0.1-0.1
					c0.6,0.2,1.2,0.4,1.7,0.7C91,26,90.7,26.2,90.4,26.4z M90.4,24.1c0,0.1,0,0.1,0.1,0.2c0.2,0.1,0.3,0.2,0.5,0.3
					c-1.1,0.3-4.6,0-5.1-0.5c0.4,0,0.7,0,0.9,0c0.2-0.2,0.3-0.4,0.4-0.6c0.1-0.1,0.2-0.2,0.2-0.3c0.3-0.6,0.8-0.7,1.1-0.2
					c0.5,0,0.9,0.1,1.4,0.1c0,0,0-0.2,0-0.3c0.3,0,0.7,0.1,0.9,0.1c-0.1,0.3-0.2,0.7-0.3,1.1c0.3-0.2,0.7-0.3,1.1-0.5
					C91.5,24.3,91,24.3,90.4,24.1z M91.6,19.2c-0.4-0.4-0.3-0.9,0.3-1.1c0.2,0.2,0.3,0.5,0.5,0.7C92,18.9,91.8,19.1,91.6,19.2z
					 M91.9,24.8c0.9-0.4,1.2-0.3,1.9,0.3C93.1,25.3,92.5,25.4,91.9,24.8z M94.8,28.6c0-0.1-0.1-0.1-0.1-0.2c0.3-0.2,0.6-0.5,1-0.6
					c0.2-0.1,0.4,0.2,0.6,0.3c0,0.1,0,0.1,0,0.2C95.8,28.4,95.3,28.5,94.8,28.6z M95.4,31.7c0.4-0.1,0.7-0.2,1.2-0.3
					C96.3,32,95.8,32.1,95.4,31.7z M96.3,23.7c-0.9,0-1.7,0-2.6-0.1c-0.2,0-0.3-0.3-0.4-0.4c-0.2-0.1-0.5-0.2-0.8-0.3
					c0.2-0.5,0.6-0.7,1.1-0.8c0.1,0,0.2,0.3,0.3,0.4c0.1,0,0.3,0.1,0.5,0.1c0.1-0.2,0.2-0.4,0.3-0.6c-0.1,0-0.2-0.1-0.3-0.1
					c0-0.1,0-0.1,0-0.2c1.3,0.1,2.5,0.3,3.7,0.4c0,0.8-0.6,0.8-1.2,0.9c0.2,0.1,0.3,0.2,0.5,0.4C97,23.7,96.6,23.7,96.3,23.7z
					 M97.4,29.6c0-0.4-0.3-0.8,0.2-1c0,0,0-0.2,0-0.3c0-0.2,0-0.3,0-0.4C98.1,28.8,98,29.1,97.4,29.6z M98.9,31.2
					c-0.3-0.1-0.6-0.2-0.8-0.3c0-0.1,0-0.2,0-0.2c0.2,0,0.5-0.1,0.7,0c0.1,0,0.2,0.3,0.3,0.4C99,31.2,99,31.2,98.9,31.2z M102,31.4
					c-0.3,0.2-0.9,0.1-1.3,0.2c0-0.1,0-0.1-0.1-0.2c0.7-0.2,0.9-1.2,1.8-1.2C102.3,30.6,102.2,31.2,102,31.4z M101.3,29.1
					c-0.1,0.1-0.3,0.1-0.4,0.1c-0.2-0.1-0.3-0.2-0.6-0.4c0.1,0.3,0.1,0.4,0.2,0.6c-0.9,0.1-1.7,0.3-2.6,0.4c0-0.1,0.1-0.2,0.2-0.4
					c0.1-0.4,0.1-0.8,0.1-1.2c0-0.2,0.1-0.4,0.2-0.6c0.5,0.1,1,0.2,1.4,0.3c0,0.1,0,0.2,0,0.2c0.2-0.2,0.4-0.3,0.6-0.5
					c1.2,0.3,2.4,0.6,3.6,0.8c0,0.1,0,0.3,0,0.6c-0.5-0.1-1,0.2-1.4-0.3C102.1,28.3,101.7,28.5,101.3,29.1z M103.5,31.3
					c-0.3-0.4-0.5-0.7-0.7-1c0.4,0,0.7-0.1,1.2-0.1C103.8,30.6,103.7,30.9,103.5,31.3z M113.4,33c-1.4-0.3-2.8-0.6-4.1-0.9
					c-0.5-0.1-1.1-0.2-1.6-0.3c-0.4-0.1-0.7-0.1-1.1-0.2c0.1-0.2,0.2-0.4,0.3-0.7c-0.7,0.2-1.2,0.3-1.7,0.5c-0.6,0.2-0.9,0-1.1-0.6
					c1.2-0.9,2.4-0.6,3.6-0.3c0.5,0.1,1,0.1,1.5,0.2c0.5,0.1,1.1,0.2,1.6,0.4c1.1,0.4,2.2,0.9,3.4,1.3
					C114.2,32.9,113.9,33.1,113.4,33z M117,32c-0.6-0.4-1.2-0.8-1.8-1.1c-1-0.6-2-1.2-3-2c-0.6-0.5-1-1.1-0.9-2c0-0.2,0-0.4-0.1-0.7
					c3,0.7,6,1.2,7.8,4.2C118.4,30.6,117,31.7,117,32z M117.9,26.5c2.7,1.9,2.7,1.9,2.6,2.5c-0.1-0.2-0.3-0.3-0.4-0.5
					c-0.2,0.1-0.3,0.1-0.5,0.2C119.1,28,118.5,27.2,117.9,26.5z M119.8,33.6c-0.1-0.4,0-0.8,0-1.1c0,0,0.1-0.1,0.1-0.1
					c0.6,0.2,1.2,0.3,1.9,0.5c-0.1,0.1-0.1,0.3-0.2,0.3c-0.4,0.2-0.9,0.3-1.4,0.4c0,0,0,0.1,0.1,0.2
					C120.1,33.8,119.9,33.7,119.8,33.6z M125.5,41.2c-0.2-0.1-0.3-0.1-0.4-0.2c-0.9-1.3-1.7-2.6-2.6-3.9c-0.5-0.8-1.1-1.6-1.8-2.3
					c-0.3-0.3-0.5-0.5-0.5-0.9c0.2,0,0.4-0.1,0.5-0.1c0.2,0,0.4-0.1,0.5,0c0.1,0,0.1,0.3,0.1,0.5c-0.3-0.1-0.5-0.1-0.8-0.2
					c0,0.2,0,0.4,0,0.4c0.7,0.2,1.4,0.3,2.3,0.6c0.2,0.5,0.6,1.2,0.9,1.9c0.5,1.1,1.1,2.3,1.6,3.4c0.1,0.2,0.2,0.3,0.2,0.5
					C125.7,40.9,125.6,41,125.5,41.2z M125.4,32.7c-0.1,0.2-0.3,0.4-0.5,0.7c0-0.6,0-1.1,0-1.8c0.3,0.1,0.7,0.1,1,0.2
					C125.7,32.1,125.6,32.4,125.4,32.7z M128.8,34.3c-0.1,1-0.5,1.7-1.1,2.5c-1.1-0.9-1.2-1.4-0.8-2.5c-0.2,0.2-0.5,0.3-0.8,0.5
					c-0.1-0.5-0.6-0.9,0.1-1.4c0.3-0.2,0.3-0.7,0.4-1.1c0.1-0.5,0.4-0.8,0.9-0.8c-0.5-0.5-0.3-1,0-1.5c0.1-0.2,0.4-0.2,0.6-0.2
					c0.1,0,0.2,0.3,0.3,0.4c0.1,0.2-0.1,0.5,0.3,0.5c0,0,0.1,0.2,0,0.2c-0.1,0-0.2,0.1-0.3,0.1c-0.3-0.1-0.5,0-0.4,0.3
					c0.1,0,0.3,0,0.4,0c0.2,0.1,0.4,0.2,0.6,0.2c-0.1,0.2-0.2,0.4-0.3,0.6c0.1,0.1,0.3,0.3,0.4,0.5c0.2,0.3,0.3,0.5,0,0.9
					C128.9,33.6,128.8,34,128.8,34.3z M129.5,44.5c-0.1,0-0.1,0-0.2,0c0.1-1,0.2-2,0.3-3.1C130.1,42.5,129.8,43.5,129.5,44.5z
					 M129.7,27.6c0.7,0.1,1.2,0.1,1.7,0.2c0,0.1,0,0.3,0,0.4c-0.2,0-0.4,0-0.7,0c-0.1,0.1-0.3,0.3-0.6,0.6
					C129.9,28.4,129.9,28.1,129.7,27.6z M130.6,38.6c-0.1-0.8-0.3-1.5-0.3-2.3c0-0.2,0.2-0.4,0.3-0.5c0.4-0.3,0.8-0.5,1.2-0.8
					c0.1,0.6,0.3,1.1,0.3,1.5c0,0.2,0,0.4-0.1,0.5c-0.4,0.5-0.9,1-1.3,1.5C130.7,38.6,130.6,38.6,130.6,38.6z M132,40.3
					c-0.3,0.3-0.6,0.6-0.9,0.3c-0.2-0.3-0.3-0.9-0.2-1.2c0.3-0.6,0.9-1,1.4-1.6C132.3,38.7,132.7,39.6,132,40.3z M131.6,33.6
					c-0.4-0.2-0.4-0.2,0-0.8c0.2-0.3,0.4-0.4,0.7-0.6c0.1,0.1,0.2,0.3,0.2,0.4C132.2,33,131.9,33.3,131.6,33.6z M133.5,33.9
					c0.4,0,0.6,0.1,1,0.1c-0.5,0.8-1,1.4-1.6,2.2C132.4,35.1,132.5,34.3,133.5,33.9z M133.4,38.8c-0.1,0-0.2-0.1-0.3-0.1
					c0-0.7-0.2-1.5,0.1-1.9c0.4-0.6,1-1.4,2.1-0.6C134.7,37,134.1,37.9,133.4,38.8z M137.4,37c0-0.3-0.1-0.5-0.1-0.8
					c-0.1,0-0.2,0-0.3,0.1c0,0.6-0.3,1-0.8,1.3c-0.3,0.2-0.6,0.3-0.9,0.5c0.5-0.8,0.9-1.5,1.4-2.3c0,0,0.1,0.1,0.1,0.2
					c0-0.4-0.1-0.8,0.4-1l0,0c0.4,0.2,0.8,0.4,1,0.5c0.7-0.5,1.3-0.9,1.9-1.2c-0.1,0-0.2-0.1-0.3-0.3c0.5,0,1,0,1.5,0
					C140.4,35.6,138.9,36.2,137.4,37z M141.7,30.4c0,0.1-0.3,0.1-0.5,0.1c0.4-0.3,0.6-1,1.2-0.7C142.1,29.8,141.7,29.8,141.7,30.4z
					 M142.7,30.1c0-0.1,0-0.2,0-0.3c0.4,0,0.9,0.1,1.4,0.1c-0.3,0.4-0.5,0.7-0.8,1C143.1,30.6,142.9,30.4,142.7,30.1z M146.4,30.3
					c0,0.1-0.2,0.3-0.3,0.3c-0.3,0.1-0.6,0.2-1,0.4c0.8,0.7,0.8,1.3,0,1.7c-0.3,0.2-0.5,0.3-0.8,0.4c-0.1,0-0.2,0-0.3,0
					c0-0.3,0.1-0.6,0.1-0.8c0.1-0.1,0.1-0.2,0.2-0.3c-0.2-0.4-0.1-0.8,0.2-1.1c0.1-0.2,0.3-0.3,0.4-0.5c0.3-0.4,0.4-1,1.2-0.5
					c0-0.1,0-0.2,0-0.3c-0.2-0.1-0.3-0.1-0.5-0.2c-0.1-0.1-0.2-0.1-0.2-0.2c0.2-0.1,0.4-0.2,0.6-0.3c0.2,0.3,0.3,0.6,0.5,0.9l0,0
					C146.3,29.9,146.4,30.1,146.4,30.3z M146.3,29.7c0.5-0.2,0.8,0.1,1.1,0.6C146.8,30.5,146.5,30.1,146.3,29.7z M147.4,29.2
					c0.3-0.2,0.5-0.3,0.8-0.6c-0.4-0.1-0.6-0.2-0.7-0.1c-0.5,0.6-1.1,0.3-1.7,0.3c0.1-0.1,0.2-0.3,0.3-0.4c0.9-0.4,1.9-0.7,2.9-1.1
					c0.1,0,0.3,0,0.3,0c0.3,0.3,0.5,0.1,0.6-0.2c0-0.1,0.2-0.2,0.3-0.3c0.1,0.1,0.2,0.2,0.2,0.3c0.1,0.2,0.2,0.3,0.3,0.5
					c0.3,0,0.6-0.1,0.9-0.1c0,0.1,0,0.1,0,0.2c-0.3,0.2-0.7,0.4-1,0.7c0,0.1,0.1,0.1,0.1,0.2c0.1-0.1,0.2-0.1,0.3-0.2
					c0,0.1,0,0.2,0,0.2c-0.2,0.1-0.4,0.2-0.6,0.3c0,0-0.1,0-0.3,0.1c0.2,0.1,0.3,0.3,0.5,0.4c-0.2,0.2-0.4,0.4-0.8,0.1
					C149.2,29.4,148.4,29.3,147.4,29.2z M150.4,31.4c0,0-0.1-0.2-0.2-0.3c0.5-0.3,1-0.5,1.5-0.7c0,0,0,0,0,0.1
					C151.3,30.7,150.9,31,150.4,31.4z M150.8,26.8c0.2-0.2,0.4-0.3,0.6-0.4c0.2,0.4,0.4,0.7,0.6,1.1
					C151.7,27.3,151.3,27.1,150.8,26.8z M152.6,27.5c0.5-1-0.3-0.9-0.9-1.1c1.2,0,2.4-0.1,3.6,0.5C154.8,27.5,154.7,27.5,152.6,27.5
					z M156,29.2c-0.3-0.3-0.9,0.6-1.2-0.4c0.5,0.1,0.9,0.1,1.3,0.1C156,29.1,156,29.2,156,29.2z M161.3,16.1
					c0.2,0.1,0.3,0.1,0.4,0.2c0.1,0.1,0.2,0.4,0.2,0.5c-0.3,0.4-0.6,0.9-1,1.4c-0.1-0.6-0.2-1.1-0.3-1.5
					C160.5,16.1,160.8,15.9,161.3,16.1z M161.6,29.1c0.3,0,0.9-0.5,1.1,0.1c-0.5,0.1-1.1,0.2-1.6,0.2c-0.1-0.5-0.2-1.1-0.3-1.6
					c0.1,0,0.2,0,0.3,0c0,0.2-0.1,0.4-0.1,0.5C161.2,28.6,161.4,28.9,161.6,29.1z M158.7,26.8c-0.5,0.1-0.9,0.2-1.3,0.3
					C157.8,26.8,158.1,26.4,158.7,26.8z M156.7,27.6c0.2,0.1,0.3,0.3,0.6,0.5c0.5-0.2,0.8,0.4,1.2,0.6c0,0.1-0.1,0.2-0.1,0.2
					c-0.6-0.2-1.2-0.4-1.8-0.6C156.7,28.2,156.7,28,156.7,27.6z M158.2,33.7c-0.1,0.1-0.2,0.2-0.3,0.4c-0.1-0.1-0.2-0.2-0.2-0.3
					c0-0.1,0.1-0.2,0.2-0.3c0.3-0.2,0.5-0.3,0.8-0.5c0.1,0.1,0.2,0.3,0.4,0.5C158.7,33.5,158.4,33.5,158.2,33.7z M160.5,33.3
					c-0.4-0.1-0.8-0.2-1.3-0.3c0.3-0.1,0.4-0.1,0.5-0.1c0.3,0,0.6,0.1,0.9,0.1c0.1,0,0.2,0.2,0.3,0.3
					C160.6,33.2,160.5,33.3,160.5,33.3z M161.1,32.5c-0.1,0.1-0.1,0.1-0.2,0.2c-0.4,0.1-1.8-0.7-2.1-1.2c-0.4,0.1-0.8,0.2-1.1,0.3
					c-0.1-0.2-0.3-0.5-0.5-0.8c0.4-0.3,0.3-0.7,0.1-1.1c-0.1-0.1-0.1-0.3-0.1-0.5c0.2,0,0.5-0.1,0.6,0c0.3,0.1,0.5,0.4,0.8,0.6
					c0.4,0.2,0.7,0.4,1.2,0c0.4-0.4,0.7,0.2,1,0.5c-0.2,0-0.3,0-0.6-0.1c0.1,0.2,0.2,0.4,0.3,0.6c-0.2,0-0.4,0-0.7,0
					c0,0.2,0,0.4-0.1,0.7c0.3-0.1,0.6-0.3,0.9-0.4c0-0.1,0-0.1,0-0.2c0.2,0.1,0.4,0.2,0.5,0.3c-0.2,0.3-0.3,0.5-0.5,0.8
					C160.9,32.3,161,32.4,161.1,32.5z M161.8,29.8c0-0.1,0.1-0.2,0.1-0.2c0.3,0.1,0.6,0.2,0.9,0.2c0,0.1-0.1,0.2-0.1,0.3
					C162.4,30.1,162.1,29.9,161.8,29.8z M162.6,33.5c0.2-0.3,0.3-0.5,0.5-0.8c0.1,0,0.1,0,0.2,0c0,0.3,0.1,0.6,0.1,1
					C163.1,33.6,162.8,33.6,162.6,33.5z M163.9,35.5c0.5-0.2,0.6-0.9,1.1-0.4c0.1,0.1,0,0.5-0.1,0.7c-0.1,0-0.1,0-0.2,0
					c0.1,0.1,0.3,0.2,0.4,0.3C164.5,36.3,164.5,35.5,163.9,35.5z M165.1,24.9c-0.3,0.5-0.7,0.7-1.2,0.2
					C164.4,25,164.7,25,165.1,24.9z M164.2,18.9c0.1-0.1,0.1-0.2,0.2-0.3c0.2,0.1,0.4,0.3,0.6,0.4c-0.1,0.1-0.2,0.2-0.3,0.3
					C164.6,19.2,164.4,19,164.2,18.9z M165,17.9c-0.9-0.5-1.9-0.9-2.9-1.4c0.7-0.7,1.2-0.3,1.7,0.2c-0.1,0.1-0.2,0.1-0.3,0.1
					c0,0,0,0.1,0,0.1c0.3,0,0.7,0.1,1,0.1C165.2,17,165.4,17.2,165,17.9z M169.7,16c0.4,0.1,0.8,0.3,1.1,0.4
					c0.2,0.1,0.4,0.2,0.6,0.2c0.5-0.1,0.7,0.2,0.9,0.7c-1-0.3-1.9-0.7-2.7-1C169.6,16.2,169.7,16.1,169.7,16z M167.6,16.2
					c0-0.1,0-0.1,0-0.2c0.3,0,0.5,0.1,0.7,0.1c0,0,0.1,0.3,0,0.3c-0.2,0.1-0.5,0.2-0.8,0.3c0,0,0-0.1-0.1-0.1
					c0.1-0.1,0.3-0.2,0.4-0.3C167.9,16.3,167.7,16.3,167.6,16.2z M167.4,13.4c0,0.1,0.1,0.4,0.2,0.6c-0.5,0.3-0.8,0.1-1.2-0.5
					C166.7,13.5,167,13.4,167.4,13.4z M166.3,26.1c-0.3-0.3-0.5-0.5-0.7-0.8c0.1,0,0.2-0.1,0.3-0.1
					C166.2,25.4,166.7,25.4,166.3,26.1z M166.5,17.7c0.1-0.4,0.5-0.5,1.1-0.2c-0.1,0.1-0.2,0.3-0.2,0.4
					C167.1,17.8,166.8,17.8,166.5,17.7z M166.6,30.9c0,0,0-0.1,0-0.1c0.3-0.1,0.5-0.3,0.8-0.4c0.2,0.3,0.3,0.5,0.5,0.9
					C167.5,31.1,167.1,31,166.6,30.9z M167.4,30.4c0.4-0.4,0.8-0.1,1.3,0c0.7,0.1,0.1,0.7,0.4,1C168.5,31,167.9,30.7,167.4,30.4z
					 M170.7,31.6c0,0.1-0.2,0.2-0.3,0.1c-0.4-0.1-0.7-0.2-1-0.3c0.2-0.2,0.3-0.4,0.5-0.5c0.2,0.1,0.5,0.3,0.7,0.4
					C170.6,31.4,170.7,31.5,170.7,31.6z M169.9,19.3c-0.2,0.1-0.6-0.2-0.9-0.3c0-0.1,0-0.2,0-0.2c0.3-0.1,0.8-0.3,0.9-0.2
					c0.5,0.5,1.6-0.4,1.8,0.9C171,19,170.5,19,169.9,19.3z M172.7,33.8c-0.1-0.3-0.3-0.5-0.3-0.7c-0.2-0.1-0.4-0.3-0.6-0.4
					c0-0.2,0-0.4,0.1-0.7c0.3,0.1,0.5,0.2,0.8,0.2c-0.1,0.3-0.1,0.5-0.2,0.7c0.3,0.1,0.6,0.1,0.9,0.2
					C173.2,33.5,173,33.6,172.7,33.8z M173.7,16.8c0.3-0.7,0.9-0.9,1.6-0.7c0.3,0.1,0.6,0.2,1,0.3c-0.2,0.3-0.5,0.6-0.8,0.9
					c0-0.3,0-0.4,0-0.6C175,16.7,174.4,16.7,173.7,16.8z M175.4,27.7c0.4-0.4,0.5-0.4,1.1,0.1C175.9,28.3,175.8,28.2,175.4,27.7z
					 M178.9,23.9c0.1-0.1,0.3-0.1,0.3-0.1c0.7,0.3,1.2,0.6,1.7,0.9C180.7,25.2,180.3,25.1,178.9,23.9z M181.9,22.3
					c-0.1,0-0.2-0.1-0.4-0.2c-0.6,0.8-1.3,0-2,0.1c0.1-0.1,0.2-0.1,0.3-0.2c-0.2-0.1-0.4-0.1-0.6-0.2c0.3-0.1,0.6-0.2,1,0
					c0.4,0.3,1,0.2,1.5,0.2c0.1,0,0.2,0.1,0.3,0.2C182,22.2,182,22.4,181.9,22.3z M183.2,27.4c-0.3-0.4-0.9-0.6-0.7-1.3
					c0,0-0.3-0.1-0.5-0.3c0.7,0.1,1.2,0.2,1.3,1c0.1-0.2,0.2-0.3,0.3-0.4c0.2,0.1,0.4,0.2,0.7,0.4C183.8,27.1,183.5,27.2,183.2,27.4
					z M186.6,25.4C186.6,25.4,186.6,25.4,186.6,25.4c0.2,0.1,0.3,0.3,0.5,0.5l0,0c-0.3,0-0.6,0.1-0.8,0c-0.2-0.2-0.3-0.6-0.5-1
					C186.1,25.1,186.4,25.3,186.6,25.4z"/>
			</g>
		</g>
	</g>
</g>
</svg>
